<svg width="46" height="50" viewBox="0 0 46 50" fill="none" xmlns="http://www.w3.org/2000/svg">
<path d="M35.9076 6.19289C35.9076 8.24771 34.3198 9.92893 32.3584 9.92893H12.8376C10.8761 9.92893 9.28833 8.24771 9.28833 6.19289V4.32487C9.28833 2.27005 10.8761 0.588829 12.8376 0.588829H32.3584C34.3198 0.588829 35.9076 2.27005 35.9076 4.32487V6.19289Z" fill="#29ABE2"/>
<path d="M7.23356 27.8619L6.95336 25.9005C6.76655 24.8731 5.92594 24.0325 4.99193 24.0325H2.47011C1.5361 24.0325 0.695487 24.8731 0.508685 25.9005L0.228482 27.8619C0.0416797 28.8893 0.695487 29.7299 1.6295 29.7299H5.83254C6.76655 29.7299 7.42036 28.8893 7.23356 27.8619Z" fill="#29ABE2"/>
<path d="M44.8742 27.8619L44.594 25.9005C44.4072 24.8731 43.5666 24.0325 42.6326 24.0325H40.1107C39.1767 24.0325 38.3361 24.8731 38.1493 25.9005L37.8691 27.8619C37.6823 28.8893 38.3361 29.7299 39.2701 29.7299H43.4732C44.4072 29.7299 44.9676 28.8893 44.8742 27.8619Z" fill="#29ABE2"/>
<path d="M40.8579 34.2132H4.43147C1.53604 34.2132 -0.23858 37.0152 0.321826 40.4711L0.69543 42.8995C1.25584 46.3553 4.15127 49.1574 6.9533 49.1574H38.1492C41.0447 49.1574 43.8467 46.3553 44.4071 42.8995L44.8741 40.4711C45.5279 37.1086 43.6599 34.2132 40.8579 34.2132Z" fill="#29ABE2"/>
</svg>
